<svg width="15" height="15" xmlns="http://www.w3.org/2000/svg" xmlns:xlink="http://www.w3.org/1999/xlink" xml:space="preserve" overflow="hidden"><defs><clipPath id="clip0"><rect x="57" y="372" width="15" height="15"/></clipPath></defs><g clip-path="url(#clip0)" transform="translate(-57 -372)"><path d="M70.125 376.845 66.0625 376.845 66.0625 375.751C66.0615 375.407 65.7822 375.127 65.4375 375.126L58.875 375.126C58.5303 375.127 58.251 375.407 58.25 375.751L58.25 379.971C58.251 380.316 58.5303 380.595 58.875 380.596L59.8125 380.596 59.8125 382.159 61.375 380.596 62.9375 380.596 62.9375 381.69C62.9385 382.035 63.2178 382.314 63.5625 382.315L67.625 382.315 69.1875 383.878 69.1875 382.315 70.125 382.315C70.4697 382.314 70.749 382.035 70.75 381.69L70.75 377.47C70.7491 377.125 70.4698 376.846 70.125 376.845ZM62.9375 377.47 62.9375 380.284 61.2459 380.284 61.1544 380.376 60.125 381.405 60.125 380.284 58.875 380.284C58.7024 380.284 58.5625 380.144 58.5625 379.972L58.5625 375.752C58.5625 375.579 58.7024 375.439 58.875 375.439L65.4375 375.439C65.6101 375.439 65.75 375.579 65.75 375.752L65.75 376.845 63.5625 376.845C63.2178 376.846 62.9385 377.126 62.9375 377.47ZM70.4375 381.69C70.4375 381.863 70.2976 382.003 70.125 382.003L68.875 382.003 68.875 383.124 67.8466 382.094 67.755 382.002 63.5625 382.002C63.3899 382.002 63.25 381.862 63.25 381.69L63.25 377.47C63.25 377.298 63.3899 377.158 63.5625 377.158L70.125 377.158C70.2976 377.158 70.4375 377.298 70.4375 377.47Z" fill="#FFFFFF"/></g></svg>