<svg width="2105" height="580" xmlns="http://www.w3.org/2000/svg" xmlns:xlink="http://www.w3.org/1999/xlink" xml:space="preserve" overflow="hidden"><defs><clipPath id="clip0"><rect x="-2598" y="792" width="2105" height="580"/></clipPath></defs><g clip-path="url(#clip0)" transform="translate(2598 -792)"><path d="M-1427.08 1083.98-1518.08 1083.98-1518.08 804.978-1427.08 804.978-1427.08 838.455-1481.19 838.455-1481.19 927.347-1432.29 927.347-1432.29 960.822-1481.19 960.822-1481.19 1050.5-1427.08 1050.5-1427.08 1083.98Z" fill="#FFFFFF" fill-rule="evenodd"/><path d="M-1406.04 920.327C-1406.04 904.685-1401.08 892.201-1391.17 882.904-1381.25 873.607-1368.6 868.978-1353.25 868.978-1337.9 868.978-1325.21 873.607-1315.16 882.904-1305.1 892.201-1300.08 904.685-1300.08 920.327L-1300.08 1083.98-1336.6 1083.98-1336.6 920.327C-1336.6 915.008-1338.14 910.722-1341.18 907.393-1344.22 904.067-1348.26 902.42-1353.28 902.42-1358.31 902.42-1362.28 903.999-1365.18 907.187-1368.09 910.379-1369.56 914.768-1369.56 920.327L-1369.56 1083.98-1406.08 1083.98-1406.08 920.327Z" fill="#FFFFFF" fill-rule="evenodd"/><path d="M-1274.01 920.428C-1274.01 904.756-1268.94 892.246-1258.79 882.931-1248.65 873.616-1235.81 868.978-1220.35 868.978-1204.86 868.978-1192.13 873.616-1182.09 882.931-1172.08 892.246-1167.08 904.756-1167.08 920.428L-1167.08 943.556-1203.93 943.556-1203.93 920.428C-1203.93 915.099-1205.41 910.804-1208.35 907.469-1211.28 904.137-1215.28 902.486-1220.35 902.486-1225.43 902.486-1229.5 904.137-1232.57 907.469-1235.64 910.804-1237.16 915.133-1237.16 920.428L-1237.16 935.998C-1237.16 942.115-1233.5 947.957-1226.15 953.559-1218.8 959.126-1210.8 964.146-1202.14 968.509-1193.48 972.907-1185.44 979.612-1178.12 988.649-1170.77 997.689-1167.11 1008.21-1167.11 1020.17L-1167.11 1036.53C-1167.11 1052.23-1172.19 1064.71-1182.33 1074.02-1192.48 1083.34-1205.31 1087.98-1220.77 1087.98-1236.26 1087.98-1248.99 1083.34-1259.04 1074.02-1269.04 1064.71-1274.04 1052.23-1274.04 1036.53L-1274.04 1013.4-1237.19 1013.4-1237.19 1036.53C-1237.19 1042.09-1235.74 1046.49-1232.78 1049.69-1229.84 1052.89-1225.84 1054.47-1220.77 1054.47-1215.7 1054.47-1211.62 1052.82-1208.56 1049.48-1205.48 1046.15-1203.96 1041.85-1203.96 1036.53L-1203.96 1020.17C-1203.96 1014.84-1206.38 1009.85-1211.18 1005.22-1215.97 1000.58-1221.8 996.313-1228.6 992.465-1235.4 988.614-1242.3 984.354-1249.23 979.716-1256.17 975.074-1262.03 969.025-1266.87 961.567-1271.66 954.109-1274.08 945.619-1274.08 936.032L-1274.08 920.428Z" fill="#FFFFFF" fill-rule="evenodd"/><path d="M-1141.04 920.331C-1141.04 904.688-1136.02 892.203-1125.97 882.905-1115.91 873.607-1103.23 868.978-1087.87 868.978-1072.52 868.978-1059.9 873.607-1049.95 882.905-1040.04 892.203-1035.08 904.688-1035.08 920.331L-1035.08 943.828C-1035.08 953.125-1036.86 960.432-1040.45 965.714-1044 971.033-1050.06 975.526-1058.5 979.267L-1104.56 999.986-1104.56 1036.62C-1104.56 1041.94-1103.02 1046.26-1100.01 1049.56-1096.97 1052.88-1092.93 1054.53-1087.91 1054.53-1082.88 1054.53-1078.91 1052.88-1076.01 1049.56-1073.1 1046.23-1071.63 1041.94-1071.63 1036.62L-1071.63 1013.12-1035.11 1013.12-1035.11 1036.62C-1035.11 1052.3-1040.07 1064.75-1049.99 1074.05-1059.9 1083.34-1072.55 1087.98-1087.91 1087.98-1103.26 1087.98-1115.95 1083.34-1126 1074.05-1136.05 1064.75-1141.08 1052.3-1141.08 1036.62L-1141.08 920.331ZM-1104.53 920.331-1104.53 964.928-1078.33 952.988C-1073.85 950.86-1071.6 947.809-1071.6 943.828L-1071.6 920.331C-1071.6 915.012-1073.07 910.725-1075.98 907.396-1078.88 904.07-1082.85 902.423-1087.87 902.423-1092.9 902.423-1096.94 904.07-1099.98 907.396-1102.99 910.691-1104.53 915.012-1104.53 920.331Z" fill="#FFFFFF" fill-rule="evenodd"/><path d="M-1005.11 836.421C-1009.09 832.579-1011.08 827.464-1011.08 821.082-1011.08 814.699-1009.09 809.587-1005.11 805.742-1001.13 801.9-995.956 799.978-989.579 799.978-983.198 799.978-978.021 801.9-974.044 805.742-970.065 809.587-968.079 814.699-968.079 821.082-968.079 827.464-970.065 832.579-974.044 836.421-978.021 840.267-983.198 842.186-989.579 842.186-995.956 842.186-1001.13 840.267-1005.11 836.421ZM-1007.92 872.865-971.3 872.865-971.3 1083.98-1007.92 1083.98-1007.92 872.865Z" fill="#FFFFFF" fill-rule="evenodd"/><path d="M-905.432 1083.98-942.079 1083.98-942.079 917.228C-942.079 902.347-937.654 890.56-928.732 881.933-919.844 873.307-907.973 868.978-893.081 868.978-878.223 868.978-866.317 873.307-857.43 881.933-848.542 890.595-844.079 902.347-844.079 917.228L-844.079 942.764-880.726 942.764-880.726 917.228C-880.726 907.398-884.845 902.484-893.081 902.484-901.316 902.484-905.432 907.398-905.432 917.228L-905.432 1083.98Z" fill="#FFFFFF" fill-rule="evenodd"/><path d="M-828.08 792.978-791.205 792.978-791.205 882.68C-786.403 873.373-777.706 868.738-765.135 868.738-752.845 868.738-742.416 873.373-733.891 882.68-725.328 891.988-721.079 904.487-721.079 920.148L-721.079 1036.57C-721.079 1052.26-726.088 1064.73-736.098 1074.04-746.112 1083.34-758.887 1087.98-774.389 1087.98-789.892 1087.98-802.701 1083.34-812.853 1074.04-823.002 1064.73-828.08 1052.26-828.08 1036.57L-828.08 792.978ZM-762.341 907.164C-765.273 903.835-769.28 902.185-774.355 902.185-779.429 902.185-783.505 903.835-786.576 907.164-789.65 910.497-791.17 914.822-791.17 920.114L-791.17 1036.53C-791.17 1041.86-789.616 1046.18-786.576 1049.48-783.505 1052.81-779.429 1054.46-774.355 1054.46-769.28 1054.46-765.273 1052.81-762.341 1049.48-759.404 1046.15-757.919 1041.86-757.919 1036.53L-757.919 920.114C-757.919 914.822-759.404 910.497-762.341 907.164Z" fill="#FFFFFF" fill-rule="evenodd"/><path d="M-699.079 988.978-699.079 955.978-633.078 955.978-633.078 988.978-699.079 988.978Z" fill="#FFFFFF" fill-rule="evenodd"/><path d="M-1517.08 1367.98-1517.08 1172.93C-1517.08 1154.35-1511.65 1139.71-1500.8 1129.02-1489.94 1118.31-1475.54 1112.98-1457.58 1112.98-1448.44 1112.98-1439.85 1115.11-1431.85 1119.37-1423.84 1123.63-1418.07 1129.06-1414.6 1135.65-1411.44 1128.75-1406.12 1123.22-1398.56 1119.13-1391 1115.04-1382.65 1112.98-1373.51 1112.98-1355.58 1112.98-1341.01 1118.34-1329.85 1129.02-1318.68 1139.74-1313.08 1154.38-1313.08 1172.93L-1313.08 1367.98-1356.5 1367.98-1356.5 1172.93C-1356.5 1166.65-1358.15 1161.66-1361.45 1158.06-1364.75 1154.45-1369.25 1152.63-1374.92 1152.63-1380.59 1152.63-1385.09 1154.45-1388.39 1158.06-1391.69 1161.66-1393.33 1166.65-1393.33 1172.93L-1393.33 1367.98-1436.79 1367.98-1436.79 1172.93C-1436.79 1166.65-1438.51 1161.66-1441.98 1158.06-1445.45 1154.45-1450.16 1152.63-1456.14 1152.63-1467.78 1152.63-1473.62 1159.4-1473.62 1172.93L-1473.62 1367.98-1517.08 1367.98Z" fill="#FFFFFF" fill-rule="evenodd"/><path d="M-1248.55 1226.76-1285.08 1226.76-1285.08 1203.57C-1285.08 1187.82-1280.05 1175.31-1269.99 1165.97-1259.94 1156.63-1247.21 1151.98-1231.89 1151.98-1216.53 1151.98-1203.91 1156.63-1193.96 1165.97-1184.04 1175.31-1179.08 1187.85-1179.08 1203.57L-1179.08 1320.39C-1179.08 1336.14-1184.04 1348.65-1193.96 1357.99-1203.88 1367.33-1216.53 1371.98-1231.89 1371.98-1247.52 1371.98-1260.28 1367.39-1270.2 1358.19-1280.12 1348.99-1285.08 1336.38-1285.08 1320.39L-1285.08 1300.78C-1285.08 1278.11-1274.37 1262.53-1252.93 1253.98L-1215.61 1238.37-1215.61 1203.57C-1215.61 1198.23-1217.08 1193.92-1219.99 1190.57-1222.9 1187.23-1226.86 1185.58-1231.89 1185.58-1236.92 1185.58-1240.95 1187.23-1244 1190.57-1247.04 1193.92-1248.55 1198.26-1248.55 1203.57L-1248.55 1226.76ZM-1248.55 1320.35C-1248.55 1325.7-1247.04 1330.04-1244 1333.35-1240.95 1336.69-1236.92 1338.34-1231.89 1338.34-1226.86 1338.34-1222.9 1336.69-1219.99 1333.35-1217.08 1330-1215.61 1325.7-1215.61 1320.35L-1215.61 1273.14-1236.65 1282.34C-1244.58 1285.55-1248.55 1291.68-1248.55 1300.75L-1248.55 1320.35Z" fill="#FFFFFF" fill-rule="evenodd"/><path d="M-1163.08 1189.8-1163.08 1156.28-1142.32 1156.28-1142.32 1109.98-1105.61 1109.98-1105.61 1156.28-1076.08 1156.28-1076.08 1189.8-1105.61 1189.8-1105.61 1319.1C-1105.61 1331.34-1100.28 1337.46-1089.66 1337.46-1085.67 1337.46-1081.13 1336.39-1076.08 1334.26L-1076.08 1366.99C-1081.92 1369.64-1088.31 1370.98-1095.22 1370.98-1109.87 1370.98-1121.35 1366.65-1129.73 1358.02-1138.12 1349.39-1142.32 1336.39-1142.32 1319.1L-1142.32 1189.8-1163.08 1189.8Z" fill="#FFFFFF" fill-rule="evenodd"/><path d="M-1060.08 1367.98-1060.08 1202.8C-1060.08 1187.05-1055.52 1174.68-1046.36 1165.59-1037.2 1156.52-1025.06 1151.98-1009.94 1151.98-1002.25 1151.98-995.017 1153.77-988.226 1157.39-981.47 1160.97-976.632 1165.59-973.684 1171.17-971.042 1165.31-966.516 1160.63-960.137 1157.18-953.758 1153.74-946.727 1151.98-939.045 1151.98-923.919 1151.98-911.638 1156.52-902.209 1165.59-892.776 1174.65-888.078 1187.05-888.078 1202.8L-888.078 1367.98-924.708 1367.98-924.708 1202.8C-924.708 1197.46-926.112 1193.25-928.891 1190.19-931.67 1187.12-935.476 1185.6-940.242 1185.6-945.012 1185.6-948.817 1187.16-951.596 1190.19-954.372 1193.25-955.779 1197.46-955.779 1202.8L-955.779 1367.98-992.409 1367.98-992.409 1202.8C-992.409 1197.46-993.884 1193.25-996.801 1190.19-999.714 1187.12-1003.69 1185.6-1008.74 1185.6-1018.55 1185.6-1023.45 1191.36-1023.45 1202.8L-1023.45 1367.98-1060.08 1367.98Z" fill="#FFFFFF" fill-rule="evenodd"/><path d="M-860.045 1203.57C-860.045 1187.82-855.019 1175.31-844.964 1165.97-834.914 1156.63-822.228 1151.98-806.875 1151.98-791.521 1151.98-778.901 1156.63-768.953 1165.97-759.035 1175.31-754.078 1187.85-754.078 1203.57L-754.078 1227.17C-754.078 1236.51-755.857 1243.85-759.445 1249.16-763.004 1254.5-769.055 1259.01-777.502 1262.77L-823.559 1283.58-823.559 1320.39C-823.559 1325.73-822.023 1330.07-819.013 1333.38-815.968 1336.72-811.935 1338.38-806.909 1338.38-801.88 1338.38-797.915 1336.72-795.007 1333.38-792.103 1330.04-790.632 1325.73-790.632 1320.39L-790.632 1296.78-754.112 1296.78-754.112 1320.39C-754.112 1336.14-759.069 1348.65-768.987 1357.99-778.901 1367.33-791.555 1371.98-806.909 1371.98-822.262 1371.98-834.948 1367.33-844.999 1357.99-855.053 1348.65-860.079 1336.14-860.079 1320.39L-860.079 1203.57ZM-823.525 1203.57-823.525 1248.37-797.334 1236.37C-792.856 1234.24-790.597 1231.17-790.597 1227.17L-790.597 1203.57C-790.597 1198.23-792.069 1193.92-794.973 1190.57-797.881 1187.23-801.846 1185.58-806.875 1185.58-811.9 1185.58-815.934 1187.23-818.979 1190.57-821.989 1193.88-823.525 1198.23-823.525 1203.57Z" fill="#FFFFFF" fill-rule="evenodd"/><path d="M-728.079 1203.57C-728.079 1187.82-723.005 1175.31-712.856 1165.97-702.703 1156.63-689.894 1151.98-674.391 1151.98-658.888 1151.98-646.148 1156.63-636.099 1165.97-626.085 1175.31-621.08 1187.85-621.08 1203.57L-621.08 1226.76-657.955 1226.76-657.955 1203.57C-657.955 1198.23-659.441 1193.92-662.373 1190.57-665.31 1187.23-669.313 1185.58-674.391 1185.58-679.466 1185.58-683.542 1187.23-686.613 1190.57-689.687 1193.92-691.204 1198.26-691.204 1203.57L-691.204 1320.39C-691.204 1325.73-689.653 1330.07-686.613 1333.38-683.542 1336.72-679.466 1338.38-674.391 1338.38-669.313 1338.38-665.31 1336.72-662.373 1333.38-659.441 1330.04-657.955 1325.73-657.955 1320.39L-657.955 1297.2-621.08 1297.2-621.08 1320.39C-621.08 1336.14-626.085 1348.65-636.099 1357.99-646.114 1367.33-658.888 1371.98-674.391 1371.98-689.894 1371.98-702.703 1367.33-712.856 1357.99-723.005 1348.65-728.079 1336.14-728.079 1320.39L-728.079 1203.57Z" fill="#FFFFFF" fill-rule="evenodd"/><path d="M-562.547 1226.76-599.079 1226.76-599.079 1203.57C-599.079 1187.82-594.052 1175.31-583.994 1165.97-573.936 1156.63-561.213 1151.98-545.889 1151.98-530.53 1151.98-517.91 1156.63-507.958 1165.97-498.037 1175.31-493.079 1187.85-493.079 1203.57L-493.079 1320.39C-493.079 1336.14-498.037 1348.65-507.958 1357.99-517.875 1367.33-530.53 1371.98-545.889 1371.98-561.521 1371.98-574.279 1367.39-584.199 1358.19-594.12 1348.99-599.079 1336.38-599.079 1320.39L-599.079 1300.78C-599.079 1278.11-588.375 1262.53-566.925 1253.98L-529.61 1238.37-529.61 1203.57C-529.61 1198.23-531.078 1193.92-533.987 1190.57-536.895 1187.23-540.862 1185.58-545.889 1185.58-550.919 1185.58-554.954 1187.23-558 1190.57-561.042 1193.92-562.547 1198.26-562.547 1203.57L-562.547 1226.76ZM-562.547 1320.35C-562.547 1325.7-561.042 1330.04-558 1333.35-554.954 1336.69-550.919 1338.34-545.889 1338.34-540.862 1338.34-536.895 1336.69-533.987 1333.35-531.078 1330-529.61 1325.7-529.61 1320.35L-529.61 1273.14-550.646 1282.34C-558.581 1285.55-562.547 1291.68-562.547 1300.75L-562.547 1320.35Z" fill="#FFFFFF" fill-rule="evenodd"/><path d="M-2387.09 857.361C-2382.2 853.221-2379.46 847.402-2379.46 840.557-2379.46 825.632-2390.82 815.978-2408.44 815.978L-2444.08 815.978-2444.08 904.978-2410.83 904.978C-2389.38 904.978-2376.08 894.365-2376.08 877.252-2376.08 868.522-2380.18 861.403-2387.09 857.361M-2420.99 869.652-2412.03 869.652C-2399.13 869.652-2399.13 873.485-2399.13 876.567-2399.13 878.824-2399.13 884.166-2412.61 884.166L-2420.99 884.166-2420.99 869.652ZM-2412.71 848.598-2420.99 848.598-2420.99 836.584-2413.95 836.584C-2402.52 836.584-2402.52 839.803-2402.52 842.129-2402.52 843.738-2402.52 848.598-2412.71 848.598" fill="#FFFFFF" fill-rule="evenodd"/><path d="M-2307.75 813.978C-2335.6 813.978-2355.08 832.997-2355.08 860.257-2355.08 887.346-2335.16 906.978-2307.75 906.978-2280.13 906.978-2260.08 887.312-2260.08 860.257-2260.08 832.997-2279.69 813.978-2307.75 813.978M-2307.61 885.396C-2321.23 885.396-2330.71 875.068-2330.71 860.257-2330.71 845.584-2321.2 835.355-2307.61 835.355-2293.92 835.355-2284.37 845.584-2284.37 860.257-2284.41 875.068-2293.96 885.396-2307.61 885.396" fill="#FFFFFF" fill-rule="evenodd"/><path d="M-2169.57 843.361C-2169.57 826.454-2182.63 815.978-2203.67 815.978L-2236.08 815.978-2236.08 904.978-2212.88 904.978-2212.88 870.985-2209.48 870.985-2190.81 904.978-2163.08 904.978-2185.69 867.529C-2175.52 863.317-2169.57 854.591-2169.57 843.361M-2212.88 836.789-2204.36 836.789C-2196.66 836.789-2192.74 838.981-2192.74 843.259-2192.74 845.416-2192.74 850.516-2205.59 850.516L-2212.88 850.516-2212.88 836.789Z" fill="#FFFFFF" fill-rule="evenodd"/><path d="M-2112.07 815.978-2145.08 815.978-2145.08 904.978-2112.07 904.978C-2088.48 904.978-2063.08 891.047-2063.08 860.478-2063.08 827.649-2088.38 815.978-2112.07 815.978M-2121.84 836.995-2114.3 836.995C-2090.1 836.995-2087.31 850.379-2087.31 860.444-2087.31 879.646-2102.01 883.652-2114.3 883.652L-2121.84 883.652-2121.84 836.995Z" fill="#FFFFFF" fill-rule="evenodd"/><path d="M-2015.64 869.618-1978.22 869.618-1978.22 848.803-2015.64 848.803-2015.64 837.235-1976.17 837.235-1976.17 815.978-2039.08 815.978-2039.08 904.978-1974.08 904.978-1974.08 883.481-2015.64 883.481Z" fill="#FFFFFF" fill-rule="evenodd"/><path d="M-1923.05 815.978-1962.08 904.978-1936.16 904.978-1928.85 886.629-1899.79 886.629-1892.27 904.978-1866.08 904.978-1904.73 815.978-1923.05 815.978ZM-1908.32 865.612-1920.5 865.612-1914.32 849.762-1908.32 865.612Z" fill="#FFFFFF" fill-rule="evenodd"/><path d="M-1802.38 870.543C-1802.38 877.317-1804.76 885.391-1816.08 885.391-1827.44 885.391-1829.78 877.317-1829.78 870.543L-1829.78 815.978-1853.08 815.978-1853.08 871.091C-1853.08 892.198-1837.86 906.978-1816.08 906.978-1794.3 906.978-1779.08 892.233-1779.08 871.091L-1779.08 815.978-1802.34 815.978-1802.34 870.543Z" fill="#FFFFFF" fill-rule="evenodd"/><path d="M-1704.84 858.046-1677.56 815.978-1704.6 815.978-1718.42 839.221-1732.45 815.978-1760.37 815.978-1732.49 857.772-1763.08 904.978-1735.26 904.978-1718.9 877.523-1701.82 904.978-1673.08 904.978Z" fill="#FFFFFF" fill-rule="evenodd"/><path d="M-1819.97 954.978-1924.81 954.978C-1959.76 954.978-1988.08 983.332-1988.08 1018.29L-1988.08 1367.98-1907.47 1367.98-1907.47 1029.96-1818.7 1029.96C-1765.16 1029.96-1746.93 1057.66-1746.93 1094.82-1746.93 1132.61-1765.2 1160.34-1818.7 1160.34L-1874.71 1160.34-1874.71 1234.67-1819.97 1234.67C-1712.94 1234.67-1665.08 1175.45-1665.08 1094.86-1665.08 1014.2-1712.94 954.978-1819.97 954.978" fill="#FFFFFF" fill-rule="evenodd"/><path d="M-2597.08 953.977-2523.08 953.977-2523.08 1367.98-2597.08 1367.98Z" fill="#FFFFFF" fill-rule="evenodd"/><path d="M-2597.08 905.978-2522.08 905.978-2522.08 815.978C-2563.5 815.978-2597.08 849.341-2597.08 890.51L-2597.08 905.978Z" fill="#FFFFFF" fill-rule="evenodd"/><path d="M-2171.11 1105.59-2370.39 961.617-2370.39 961.686C-2378.27 956.835-2387.53 953.977-2397.44 953.977-2425.96 953.977-2449.08 977.103-2449.08 1005.63L-2449.08 1367.98-2373.76 1367.98-2373.76 1055.83-2171.08 1202.43-2171.08 1105.59Z" fill="#FFFFFF" fill-rule="evenodd"/><path d="M-2343.04 1216.38-2144.48 1360.34-2144.48 1360.27C-2136.63 1365.12-2127.41 1367.98-2117.54 1367.98-2089.12 1367.98-2066.08 1344.86-2066.08 1316.33L-2066.08 953.977-2141.12 953.977-2141.12 1266.09-2343.08 1119.52-2343.08 1216.38Z" fill="#FFFFFF" fill-rule="evenodd"/></g></svg>